<svg width="26" height="18" viewBox="0 0 26 18" fill="none" xmlns="http://www.w3.org/2000/svg">
<path d="M16.0379 9.04687C16.0379 8.51116 15.9821 8.09821 15.904 7.68527H8.1808V10.4978H12.8237C12.6339 11.692 11.4174 14.0246 8.1808 14.0246C5.39062 14.0246 3.11384 11.7143 3.11384 8.85714C3.11384 6 5.39062 3.68973 8.1808 3.68973C9.77679 3.68973 10.8371 4.37054 11.4397 4.95089L13.6607 2.8192C12.2321 1.47991 10.3906 0.676338 8.1808 0.676338C3.66071 0.676338 0 4.33705 0 8.85714C0 13.3772 3.66071 17.0379 8.1808 17.0379C12.9018 17.0379 16.0379 13.7232 16.0379 9.04687ZM25.7143 7.68527H23.3817V5.35268H21.0379V7.68527H18.7054V10.029H21.0379V12.3616H23.3817V10.029H25.7143V7.68527Z" fill="white"/>
</svg>
