<svg width="18" height="18" viewBox="0 0 18 18" fill="none" xmlns="http://www.w3.org/2000/svg">
<path d="M17.1429 8.85714C17.1429 4.125 13.3036 0.285713 8.57143 0.285713C3.83929 0.285713 0 4.125 0 8.85714C0 12.3728 2.10938 15.3862 5.13393 16.7143C5.11161 16.1116 5.12277 15.3862 5.27902 14.7388C5.27902 14.7388 5.44643 14.0469 6.38393 10.0737C6.10491 9.52679 6.10491 8.71205 6.10491 8.71205C6.10491 7.43973 6.84152 6.49107 7.7567 6.49107C8.53795 6.49107 8.91741 7.08259 8.91741 7.78571C8.91741 8.56696 8.41518 9.73884 8.15848 10.8214C7.94643 11.7366 8.61607 12.4732 9.50893 12.4732C11.1384 12.4732 12.2321 10.3862 12.2321 7.91964C12.2321 6.03348 10.9598 4.62723 8.66071 4.62723C6.06027 4.62723 4.44196 6.5692 4.44196 8.73437C4.44196 9.48214 4.66518 10.0067 5.01116 10.4196C5.16741 10.6094 5.18973 10.6763 5.13393 10.8996C5.08929 11.0558 5 11.4353 4.95536 11.5804C4.89955 11.8036 4.72098 11.8817 4.53125 11.8036C3.33705 11.3125 2.77902 9.99554 2.77902 8.52232C2.77902 6.08929 4.83259 3.16518 8.89509 3.16518C12.1763 3.16518 14.3304 5.54241 14.3304 8.07589C14.3304 11.4464 12.4554 13.9576 9.69866 13.9576C8.77232 13.9576 7.90179 13.4554 7.61161 12.8862C7.10938 14.8616 7.00893 15.2411 7.00893 15.2411C6.83036 15.8996 6.46205 16.558 6.13839 17.0714C6.91964 17.3058 7.72321 17.4286 8.57143 17.4286C13.3036 17.4286 17.1429 13.5893 17.1429 8.85714Z" fill="white"/>
</svg>
