<svg width="32" height="27" viewBox="0 0 32 27" fill="none" xmlns="http://www.w3.org/2000/svg">
<path d="M14.5714 3.92857C14.5714 1.91741 12.9397 0.285713 10.9286 0.285713H3.64286C1.6317 0.285713 0 1.91741 0 3.92857V11.2143C0 13.2254 1.6317 14.8571 3.64286 14.8571H7.89286C8.89844 14.8571 9.71429 15.673 9.71429 16.6786V17.2857C9.71429 19.9609 7.53237 22.1429 4.85714 22.1429H3.64286C2.97879 22.1429 2.42857 22.6931 2.42857 23.3571V25.7857C2.42857 26.4498 2.97879 27 3.64286 27H4.85714C10.2076 27 14.5714 22.6362 14.5714 17.2857V3.92857ZM31.5714 3.92857C31.5714 1.91741 29.9397 0.285713 27.9286 0.285713H20.6429C18.6317 0.285713 17 1.91741 17 3.92857V11.2143C17 13.2254 18.6317 14.8571 20.6429 14.8571H24.8929C25.8984 14.8571 26.7143 15.673 26.7143 16.6786V17.2857C26.7143 19.9609 24.5324 22.1429 21.8571 22.1429H20.6429C19.9788 22.1429 19.4286 22.6931 19.4286 23.3571V25.7857C19.4286 26.4498 19.9788 27 20.6429 27H21.8571C27.2076 27 31.5714 22.6362 31.5714 17.2857V3.92857Z" fill="#2B4074"/>
</svg>
