<svg width="19" height="15" viewBox="0 0 19 15" fill="none" xmlns="http://www.w3.org/2000/svg">
<path d="M18.0804 2.41071C17.433 2.68973 16.7299 2.89062 16.0045 2.96875C16.7522 2.52232 17.3214 1.8192 17.5893 0.982143C16.8973 1.39509 16.1161 1.69643 15.3013 1.85268C14.6429 1.14955 13.7054 0.714285 12.6674 0.714285C10.6696 0.714285 9.0625 2.33259 9.0625 4.3192C9.0625 4.59821 9.09598 4.87723 9.15179 5.14509C6.16071 4.98884 3.4933 3.56027 1.71875 1.37277C1.40625 1.90848 1.22768 2.52232 1.22768 3.19196C1.22768 4.44196 1.86384 5.54687 2.83482 6.1942C2.2433 6.17187 1.68527 6.00446 1.20536 5.73661C1.20536 5.74777 1.20536 5.77009 1.20536 5.78125C1.20536 7.53348 2.4442 8.98438 4.09598 9.3192C3.79464 9.39732 3.47098 9.44196 3.14732 9.44196C2.91295 9.44196 2.68973 9.41964 2.46652 9.38616C2.92411 10.8147 4.25223 11.8527 5.83705 11.8862C4.59821 12.8571 3.04688 13.4263 1.36161 13.4263C1.06027 13.4263 0.78125 13.4152 0.491071 13.3817C2.08705 14.4085 3.98438 15 6.02679 15C12.6562 15 16.2835 9.50893 16.2835 4.7433C16.2835 4.58705 16.2835 4.4308 16.2723 4.27455C16.9754 3.76116 17.5893 3.125 18.0804 2.41071Z" fill="white"/>
</svg>
